  0
SECTION
  2
HEADER
  9
$ACADVER
  1
AC1009
  9
$EXTMIN
 10
0.0
 20
0.0
 30
0.0
  9
$EXTMAX
 10
1000.0
 20
1000.0
 30
0.0
  9
$FILLMODE
 70
 0
  9
$SPLFRAME
 70
 1
  0
ENDSEC
  0
SECTION
  2
TABLES
  0
TABLE
  2
LAYER
 70
1
  0
LAYER
  2
0
 70
     0
 62
     7
  6
CONTINUOUS
  0
ENDTAB
  0
ENDSEC
  0
SECTION
  2
ENTITIES
  0
POLYLINE
  8
0
 62
     0
 66
     1
 10
0
 20
0
 30
0.0
 70
     1
 40
0
 41
0
  0
VERTEX
  8
0
 10
0.623861
 20
0.253472
 30
0.0
 40
0
 41
0
  0
VERTEX
  8
0
 10
0.629829
 20
0.314996
 30
0.0
 40
0
 41
0
  0
VERTEX
  8
0
 10
0.511719
 20
0.314996
 30
0.0
 40
0
 41
0
  0
VERTEX
  8
0
 10
0.507921
 20
0.353353
 30
0.0
 40
0
 41
0
  0
VERTEX
  8
0
 10
0.623861
 20
0.376357
 30
0.0
 40
0
 41
0
  0
VERTEX
  8
0
 10
0.605957
 20
0.435547
 30
0.0
 40
0
 41
0
  0
VERTEX
  8
0
 10
0.605849
 20
0.435547
 30
0.0
 40
0
 41
0
  0
VERTEX
  8
0
 10
0.49669
 20
0.390354
 30
0.0
 40
0
 41
0
  0
VERTEX
  8
0
 10
0.478569
 20
0.424263
 30
0.0
 40
0
 41
0
  0
VERTEX
  8
0
 10
0.576822
 20
0.489854
 30
0.0
 40
0
 41
0
  0
VERTEX
  8
0
 10
0.537651
 20
0.537651
 30
0.0
 40
0
 41
0
  0
VERTEX
  8
0
 10
0.454101
 20
0.454156
 30
0.0
 40
0
 41
0
  0
VERTEX
  8
0
 10
0.424263
 20
0.478624
 30
0.0
 40
0
 41
0
  0
VERTEX
  8
0
 10
0.489854
 20
0.576822
 30
0.0
 40
0
 41
0
  0
VERTEX
  8
0
 10
0.435547
 20
0.605849
 30
0.0
 40
0
 41
0
  0
VERTEX
  8
0
 10
0.3903
 20
0.496799
 30
0.0
 40
0
 41
0
  0
VERTEX
  8
0
 10
0.353299
 20
0.508029
 30
0.0
 40
0
 41
0
  0
VERTEX
  8
0
 10
0.376357
 20
0.623861
 30
0.0
 40
0
 41
0
  0
VERTEX
  8
0
 10
0.314833
 20
0.629829
 30
0.0
 40
0
 41
0
  0
VERTEX
  8
0
 10
0.314833
 20
0.511828
 30
0.0
 40
0
 41
0
  0
VERTEX
  8
0
 10
0.276475
 20
0.508029
 30
0.0
 40
0
 41
0
  0
VERTEX
  8
0
 10
0.253472
 20
0.623861
 30
0.0
 40
0
 41
0
  0
VERTEX
  8
0
 10
0.194282
 20
0.605957
 30
0.0
 40
0
 41
0
  0
VERTEX
  8
0
 10
0.194282
 20
0.605849
 30
0.0
 40
0
 41
0
  0
VERTEX
  8
0
 10
0.239475
 20
0.496853
 30
0.0
 40
0
 41
0
  0
VERTEX
  8
0
 10
0.205512
 20
0.478678
 30
0.0
 40
0
 41
0
  0
VERTEX
  8
0
 10
0.140028
 20
0.576822
 30
0.0
 40
0
 41
0
  0
VERTEX
  8
0
 10
0.0922308
 20
0.537651
 30
0.0
 40
0
 41
0
  0
VERTEX
  8
0
 10
0.175672
 20
0.45421
 30
0.0
 40
0
 41
0
  0
VERTEX
  8
0
 10
0.151204
 20
0.424317
 30
0.0
 40
0
 41
0
  0
VERTEX
  8
0
 10
0.0530599
 20
0.489854
 30
0.0
 40
0
 41
0
  0
VERTEX
  8
0
 10
0.0238715
 20
0.435547
 30
0.0
 40
0
 41
0
  0
VERTEX
  8
0
 10
0.0240343
 20
0.435547
 30
0.0
 40
0
 41
0
  0
VERTEX
  8
0
 10
0.133029
 20
0.390354
 30
0.0
 40
0
 41
0
  0
VERTEX
  8
0
 10
0.121799
 20
0.353353
 30
0.0
 40
0
 41
0
  0
VERTEX
  8
0
 10
0.00596789
 20
0.376357
 30
0.0
 40
0
 41
0
  0
VERTEX
  8
0
 10
0
 20
0.314996
 30
0.0
 40
0
 41
0
  0
VERTEX
  8
0
 10
0.118001
 20
0.314996
 30
0.0
 40
0
 41
0
  0
VERTEX
  8
0
 10
0.121799
 20
0.276531
 30
0.0
 40
0
 41
0
  0
VERTEX
  8
0
 10
0.00596789
 20
0.253472
 30
0.0
 40
0
 41
0
  0
VERTEX
  8
0
 10
0.0240343
 20
0.194282
 30
0.0
 40
0
 41
0
  0
VERTEX
  8
0
 10
0.133029
 20
0.239529
 30
0.0
 40
0
 41
0
  0
VERTEX
  8
0
 10
0.151204
 20
0.205621
 30
0.0
 40
0
 41
0
  0
VERTEX
  8
0
 10
0.0530599
 20
0.139974
 30
0.0
 40
0
 41
0
  0
VERTEX
  8
0
 10
0.0922308
 20
0.0922308
 30
0.0
 40
0
 41
0
  0
VERTEX
  8
0
 10
0.175726
 20
0.175726
 30
0.0
 40
0
 41
0
  0
VERTEX
  8
0
 10
0.205567
 20
0.151258
 30
0.0
 40
0
 41
0
  0
VERTEX
  8
0
 10
0.140028
 20
0.0530599
 30
0.0
 40
0
 41
0
  0
VERTEX
  8
0
 10
0.194282
 20
0.0238715
 30
0.0
 40
0
 41
0
  0
VERTEX
  8
0
 10
0.194282
 20
0.0240343
 30
0.0
 40
0
 41
0
  0
VERTEX
  8
0
 10
0.239529
 20
0.133138
 30
0.0
 40
0
 41
0
  0
VERTEX
  8
0
 10
0.276531
 20
0.121962
 30
0.0
 40
0
 41
0
  0
VERTEX
  8
0
 10
0.253472
 20
0.00596789
 30
0.0
 40
0
 41
0
  0
VERTEX
  8
0
 10
0.314833
 20
-0
 30
0.0
 40
0
 41
0
  0
VERTEX
  8
0
 10
0.314833
 20
0.118164
 30
0.0
 40
0
 41
0
  0
VERTEX
  8
0
 10
0.353299
 20
0.121962
 30
0.0
 40
0
 41
0
  0
VERTEX
  8
0
 10
0.376357
 20
0.00596789
 30
0.0
 40
0
 41
0
  0
VERTEX
  8
0
 10
0.435547
 20
0.0240343
 30
0.0
 40
0
 41
0
  0
VERTEX
  8
0
 10
0.3903
 20
0.133192
 30
0.0
 40
0
 41
0
  0
VERTEX
  8
0
 10
0.424208
 20
0.151312
 30
0.0
 40
0
 41
0
  0
VERTEX
  8
0
 10
0.489854
 20
0.0530599
 30
0.0
 40
0
 41
0
  0
VERTEX
  8
0
 10
0.537651
 20
0.0922308
 30
0.0
 40
0
 41
0
  0
VERTEX
  8
0
 10
0.454047
 20
0.175781
 30
0.0
 40
0
 41
0
  0
VERTEX
  8
0
 10
0.478515
 20
0.205675
 30
0.0
 40
0
 41
0
  0
VERTEX
  8
0
 10
0.576822
 20
0.139974
 30
0.0
 40
0
 41
0
  0
VERTEX
  8
0
 10
0.605849
 20
0.194282
 30
0.0
 40
0
 41
0
  0
VERTEX
  8
0
 10
0.49669
 20
0.239583
 30
0.0
 40
0
 41
0
  0
VERTEX
  8
0
 10
0.507921
 20
0.276585
 30
0.0
 40
0
 41
0
  0
VERTEX
  8
0
 10
0.623861
 20
0.253472
 30
0.0
 40
0
 41
0
  0
SEQEND
 8
0
  0
ENDSEC
  0
EOF
